<svg width="32" height="32" viewBox="0 0 32 32" fill="none" xmlns="http://www.w3.org/2000/svg">
<path d="M6 15.7188C6 15.4479 6.04688 15.1979 6.14062 14.9688C6.24479 14.7396 6.40104 14.5208 6.60938 14.3125L18.7812 2.40625C19.1354 2.0625 19.5625 1.89062 20.0625 1.89062C20.4062 1.89062 20.7135 1.97396 20.9844 2.14062C21.2656 2.29688 21.4896 2.51042 21.6562 2.78125C21.8229 3.05208 21.9062 3.35938 21.9062 3.70312C21.9062 4.19271 21.7135 4.63021 21.3281 5.01562L10.3594 15.7188L21.3281 26.4219C21.7135 26.8073 21.9062 27.25 21.9062 27.75C21.9062 28.0833 21.8229 28.3854 21.6562 28.6562C21.4896 28.9375 21.2656 29.1562 20.9844 29.3125C20.7135 29.4792 20.4062 29.5625 20.0625 29.5625C19.5625 29.5625 19.1354 29.3854 18.7812 29.0312L6.60938 17.125C6.40104 16.9167 6.24479 16.6979 6.14062 16.4688C6.04688 16.2396 6 15.9896 6 15.7188Z" fill="white"/>
</svg>
