<svg width="24" height="24" viewBox="0 0 24 24" fill="none" xmlns="http://www.w3.org/2000/svg">
<path d="M4.94141 19.5078C4.79818 19.3711 4.70378 19.2083 4.6582 19.0195C4.61263 18.8307 4.61263 18.6419 4.6582 18.4531C4.71029 18.2643 4.80469 18.1048 4.94141 17.9746L10.9375 11.959L4.94141 5.95312C4.80469 5.82292 4.71354 5.66341 4.66797 5.47461C4.6224 5.28581 4.6224 5.09701 4.66797 4.9082C4.71354 4.7194 4.80469 4.55664 4.94141 4.41992C5.08464 4.27669 5.25065 4.18229 5.43945 4.13672C5.62826 4.09115 5.81706 4.09115 6.00586 4.13672C6.19466 4.18229 6.35742 4.27344 6.49414 4.41016L12.5 10.416L18.4961 4.41016C18.6328 4.26693 18.7956 4.17578 18.9844 4.13672C19.1732 4.09115 19.3587 4.09115 19.541 4.13672C19.7298 4.18229 19.8991 4.27669 20.0488 4.41992C20.1855 4.55664 20.2767 4.7194 20.3223 4.9082C20.3743 5.09701 20.3743 5.28581 20.3223 5.47461C20.2767 5.6569 20.1855 5.81966 20.0488 5.96289L14.0527 11.959L20.0488 17.9648C20.1855 18.1081 20.2767 18.2741 20.3223 18.4629C20.3678 18.6452 20.3678 18.8307 20.3223 19.0195C20.2767 19.2083 20.1855 19.3711 20.0488 19.5078C19.9056 19.651 19.7396 19.7454 19.5508 19.791C19.362 19.8366 19.1732 19.8366 18.9844 19.791C18.7956 19.7454 18.6328 19.6543 18.4961 19.5176L12.5 13.5117L6.49414 19.5176C6.35742 19.6543 6.19466 19.7454 6.00586 19.791C5.82357 19.8366 5.63477 19.8366 5.43945 19.791C5.25065 19.7454 5.08464 19.651 4.94141 19.5078Z" fill="#212121"/>
</svg>
