<svg width="24" height="24" viewBox="0 0 24 24" fill="none" xmlns="http://www.w3.org/2000/svg">
<path d="M12 17.9297C11.0885 17.9297 10.2272 17.818 9.41602 17.5947C8.60482 17.376 7.85286 17.0866 7.16016 16.7266C6.47201 16.362 5.85221 15.9609 5.30078 15.5234C4.75391 15.0859 4.28678 14.6462 3.89941 14.2041C3.51204 13.762 3.21582 13.3542 3.01074 12.9805C2.80566 12.6068 2.70312 12.3037 2.70312 12.0713C2.70312 11.8389 2.80566 11.5358 3.01074 11.1621C3.21582 10.7884 3.51204 10.3828 3.89941 9.94531C4.28678 9.50326 4.75391 9.06348 5.30078 8.62598C5.85221 8.18848 6.47201 7.78971 7.16016 7.42969C7.85286 7.0651 8.60482 6.77344 9.41602 6.55469C10.2272 6.33138 11.0885 6.21973 12 6.21973C12.9251 6.21973 13.7956 6.33138 14.6113 6.55469C15.4271 6.77344 16.179 7.0651 16.8672 7.42969C17.5599 7.78971 18.1797 8.18848 18.7266 8.62598C19.2734 9.06348 19.7383 9.50326 20.1211 9.94531C20.5039 10.3828 20.7956 10.7884 20.9961 11.1621C21.1966 11.5358 21.2969 11.8389 21.2969 12.0713C21.2969 12.3037 21.1966 12.6068 20.9961 12.9805C20.7956 13.3542 20.5039 13.762 20.1211 14.2041C19.7383 14.6462 19.2734 15.0859 18.7266 15.5234C18.1842 15.9609 17.5667 16.362 16.874 16.7266C16.1859 17.0866 15.4316 17.376 14.6113 17.5947C13.7956 17.818 12.9251 17.9297 12 17.9297ZM12.0068 15.8105C12.5264 15.8105 13.0117 15.7126 13.4629 15.5166C13.9186 15.3206 14.3174 15.0495 14.6592 14.7031C15.001 14.3568 15.2699 13.9603 15.4658 13.5137C15.6618 13.0625 15.7598 12.5817 15.7598 12.0713C15.7598 11.5518 15.6618 11.0664 15.4658 10.6152C15.2699 10.1641 15.001 9.76758 14.6592 9.42578C14.3174 9.07943 13.9186 8.81283 13.4629 8.62598C13.0117 8.43457 12.5264 8.33887 12.0068 8.33887C11.4827 8.33887 10.9928 8.43457 10.5371 8.62598C10.0859 8.81283 9.68717 9.07715 9.34082 9.41895C8.99902 9.76074 8.73014 10.1595 8.53418 10.6152C8.34277 11.0664 8.24707 11.5518 8.24707 12.0713C8.24707 12.5817 8.34277 13.0625 8.53418 13.5137C8.73014 13.9603 8.99902 14.3568 9.34082 14.7031C9.68717 15.0495 10.0859 15.3206 10.5371 15.5166C10.9928 15.7126 11.4827 15.8105 12.0068 15.8105ZM12 13.4658C11.6126 13.4658 11.2822 13.3291 11.0088 13.0557C10.7354 12.7822 10.5986 12.4564 10.5986 12.0781C10.5986 11.6953 10.7354 11.3672 11.0088 11.0938C11.2822 10.8158 11.6126 10.6768 12 10.6768C12.3874 10.6768 12.7178 10.8158 12.9912 11.0938C13.2692 11.3672 13.4082 11.6953 13.4082 12.0781C13.4082 12.4564 13.2692 12.7822 12.9912 13.0557C12.7178 13.3291 12.3874 13.4658 12 13.4658Z" fill="#2845C1"/>
</svg>
