<svg width="24" height="24" viewBox="0 0 24 24" fill="none" xmlns="http://www.w3.org/2000/svg">
<path d="M12 17.9912C11.0794 17.9912 10.2067 17.8796 9.38184 17.6562C8.56152 17.4329 7.80273 17.139 7.10547 16.7744C6.4082 16.4053 5.78158 15.9997 5.22559 15.5576C4.67415 15.1156 4.20247 14.6735 3.81055 14.2314C3.42318 13.7848 3.12467 13.3724 2.91504 12.9941C2.70996 12.6113 2.60742 12.3037 2.60742 12.0713C2.60742 11.8708 2.68717 11.611 2.84668 11.292C3.00618 10.9684 3.23861 10.6175 3.54395 10.2393C3.84928 9.85645 4.22298 9.46908 4.66504 9.07715C5.1071 8.68066 5.60612 8.30469 6.16211 7.94922L7.19434 8.98145C6.72493 9.26855 6.30339 9.56934 5.92969 9.88379C5.56055 10.1937 5.24382 10.4945 4.97949 10.7861C4.71517 11.0778 4.51237 11.3376 4.37109 11.5654C4.22982 11.7887 4.15918 11.9574 4.15918 12.0713C4.15918 12.2308 4.25033 12.4541 4.43262 12.7412C4.61947 13.0283 4.88379 13.3451 5.22559 13.6914C5.56738 14.0332 5.97298 14.3796 6.44238 14.7305C6.91634 15.0768 7.44499 15.3981 8.02832 15.6943C8.61165 15.9906 9.236 16.2275 9.90137 16.4053C10.5713 16.583 11.2708 16.6719 12 16.6719C12.4238 16.6719 12.8317 16.64 13.2236 16.5762C13.6201 16.5124 14.0052 16.4281 14.3789 16.3232L15.4658 17.417C14.9417 17.5947 14.3903 17.7337 13.8115 17.834C13.2327 17.9388 12.6289 17.9912 12 17.9912ZM12 6.1582C12.9342 6.1582 13.8138 6.26986 14.6387 6.49316C15.4681 6.71647 16.2314 7.0127 16.9287 7.38184C17.626 7.74642 18.248 8.14974 18.7949 8.5918C19.3464 9.03385 19.8158 9.47819 20.2031 9.9248C20.5905 10.3669 20.8844 10.777 21.085 11.1553C21.29 11.5335 21.3926 11.8389 21.3926 12.0713C21.3926 12.2718 21.3151 12.5293 21.1602 12.8438C21.0098 13.1582 20.7887 13.5023 20.4971 13.876C20.2054 14.2451 19.8477 14.6257 19.4238 15.0176C19.0046 15.4049 18.5283 15.7741 17.9951 16.125L16.9766 15.1064C17.4141 14.8285 17.8083 14.5413 18.1592 14.2451C18.5101 13.9489 18.8109 13.6618 19.0615 13.3838C19.3122 13.1012 19.5036 12.846 19.6357 12.6182C19.7725 12.3903 19.8408 12.208 19.8408 12.0713C19.8408 11.9391 19.7474 11.7363 19.5605 11.4629C19.3783 11.1895 19.1162 10.8796 18.7744 10.5332C18.4326 10.1823 18.0247 9.8291 17.5508 9.47363C17.0814 9.11816 16.555 8.79004 15.9717 8.48926C15.3883 8.18392 14.7617 7.93783 14.0918 7.75098C13.4264 7.56413 12.7292 7.4707 12 7.4707C11.6126 7.4707 11.2389 7.50033 10.8789 7.55957C10.5189 7.61426 10.1657 7.68945 9.81934 7.78516L8.72559 6.69141C9.22689 6.52734 9.7487 6.39746 10.291 6.30176C10.8333 6.20605 11.403 6.1582 12 6.1582ZM12 15.7559C11.485 15.7559 11.0042 15.6602 10.5576 15.4688C10.111 15.2728 9.71908 15.0062 9.38184 14.6689C9.0446 14.3271 8.78027 13.9352 8.58887 13.4932C8.40202 13.0465 8.30859 12.5726 8.30859 12.0713C8.30859 11.807 8.33594 11.5495 8.39062 11.2988C8.44987 11.0482 8.53418 10.8089 8.64355 10.5811L13.4766 15.4209C13.2533 15.5212 13.0163 15.6032 12.7656 15.667C12.5195 15.7262 12.2643 15.7559 12 15.7559ZM15.4111 13.3906L10.6807 8.66016C10.8812 8.57357 11.0931 8.50749 11.3164 8.46191C11.5397 8.41634 11.7699 8.39355 12.0068 8.39355C12.5127 8.39355 12.9889 8.48926 13.4355 8.68066C13.8822 8.86751 14.2741 9.12956 14.6113 9.4668C14.9486 9.79948 15.2129 10.1891 15.4043 10.6357C15.5957 11.0824 15.6914 11.5609 15.6914 12.0713C15.6914 12.3037 15.6663 12.5316 15.6162 12.7549C15.5706 12.9782 15.5023 13.1901 15.4111 13.3906ZM17.3936 18.1074L5.80664 6.53418C5.70182 6.42936 5.64941 6.30176 5.64941 6.15137C5.64941 5.99642 5.70182 5.86654 5.80664 5.76172C5.91146 5.6569 6.04134 5.60449 6.19629 5.60449C6.35124 5.60449 6.47884 5.6569 6.5791 5.76172L18.1592 17.335C18.2686 17.4443 18.3232 17.5719 18.3232 17.7178C18.3278 17.8636 18.2731 17.9935 18.1592 18.1074C18.0544 18.2214 17.9268 18.276 17.7764 18.2715C17.626 18.2715 17.4984 18.2168 17.3936 18.1074Z" fill="#D4D4D4"/>
</svg>
