<svg width="80" height="80" viewBox="0 0 80 80" fill="none" xmlns="http://www.w3.org/2000/svg">
<path d="M40 74.3125C35.6458 74.3125 31.5417 73.4792 27.6875 71.8125C23.8542 70.1458 20.4688 67.8438 17.5312 64.9062C14.5938 61.9688 12.2917 58.5833 10.625 54.75C8.95833 50.8958 8.125 46.7917 8.125 42.4375C8.125 38.0833 8.95833 33.9896 10.625 30.1562C12.2917 26.3021 14.5833 22.9062 17.5 19.9688C20.4375 17.0312 23.8229 14.7292 27.6562 13.0625C31.5104 11.3958 35.6146 10.5625 39.9688 10.5625C44.3229 10.5625 48.4271 11.3958 52.2812 13.0625C56.1354 14.7292 59.5312 17.0312 62.4688 19.9688C65.4062 22.9062 67.7083 26.3021 69.375 30.1562C71.0417 33.9896 71.875 38.0833 71.875 42.4375C71.875 46.7917 71.0417 50.8958 69.375 54.75C67.7083 58.5833 65.4062 61.9688 62.4688 64.9062C59.5312 67.8438 56.1354 70.1458 52.2812 71.8125C48.4479 73.4792 44.3542 74.3125 40 74.3125ZM36.5 57.6875C37.0417 57.6875 37.5312 57.5625 37.9688 57.3125C38.4062 57.0625 38.7917 56.6875 39.125 56.1875L53.8125 33.0312C54 32.7188 54.1771 32.3854 54.3438 32.0312C54.5104 31.6771 54.5938 31.3229 54.5938 30.9688C54.5938 30.2396 54.3229 29.6667 53.7812 29.25C53.2396 28.8125 52.6354 28.5938 51.9688 28.5938C51.0521 28.5938 50.3021 29.0729 49.7188 30.0312L36.375 51.4688L30.0312 43.2812C29.6354 42.7604 29.25 42.4062 28.875 42.2188C28.5208 42.0312 28.1146 41.9375 27.6562 41.9375C26.9479 41.9375 26.3542 42.1979 25.875 42.7188C25.3958 43.2188 25.1562 43.8229 25.1562 44.5312C25.1562 44.8854 25.2188 45.2396 25.3438 45.5938C25.4896 45.9271 25.6771 46.25 25.9062 46.5625L33.75 56.1875C34.1667 56.7292 34.5938 57.1146 35.0312 57.3438C35.4688 57.5729 35.9583 57.6875 36.5 57.6875Z" fill="#8BC34A"/>
</svg>
