<svg width="200" height="180" viewBox="0 0 200 180" fill="none" xmlns="http://www.w3.org/2000/svg">
<rect x="0.5" y="0.5" width="199" height="179" rx="11.5" stroke="#FE747C"/>
<path d="M91.7871 99.2949C90.6738 99.2949 89.821 98.9987 89.2285 98.4062C88.6361 97.8203 88.3398 96.974 88.3398 95.8672V84.0508C88.3398 82.9375 88.6361 82.0879 89.2285 81.502C89.821 80.916 90.6738 80.623 91.7871 80.623H108.203C109.323 80.623 110.176 80.9193 110.762 81.5117C111.354 82.0977 111.65 82.944 111.65 84.0508V89.3535C111.449 89.3145 111.243 89.2852 111.035 89.2656C110.827 89.2396 110.615 89.2266 110.4 89.2266C110.186 89.2266 109.971 89.2396 109.756 89.2656C109.548 89.2852 109.339 89.3177 109.131 89.3633V84.3535C109.131 83.9368 109.027 83.6309 108.818 83.4355C108.617 83.2402 108.32 83.1426 107.93 83.1426H92.0605C91.6699 83.1426 91.3704 83.2402 91.1621 83.4355C90.9603 83.6309 90.8594 83.9368 90.8594 84.3535V94.2266L93.1836 92.1562C93.3854 91.974 93.584 91.8405 93.7793 91.7559C93.9811 91.6647 94.1992 91.6191 94.4336 91.6191C94.6615 91.6191 94.8861 91.668 95.1074 91.7656C95.3353 91.8568 95.5501 91.9902 95.752 92.166L97.5488 93.7871L101.953 89.8516C102.174 89.6562 102.406 89.513 102.646 89.4219C102.887 89.3242 103.141 89.2754 103.408 89.2754C103.662 89.2754 103.913 89.3242 104.16 89.4219C104.414 89.513 104.648 89.6595 104.863 89.8613L106.006 90.9355C105.322 91.5345 104.782 92.2572 104.385 93.1035C103.988 93.9499 103.789 94.8581 103.789 95.8281C103.789 96.4596 103.877 97.0684 104.053 97.6543C104.229 98.2402 104.473 98.7871 104.785 99.2949H91.7871ZM96.4258 90.2812C95.9831 90.2812 95.5762 90.1738 95.2051 89.959C94.8405 89.7441 94.5475 89.4544 94.3262 89.0898C94.1113 88.7188 94.0039 88.3118 94.0039 87.8691C94.0039 87.4329 94.1113 87.0326 94.3262 86.668C94.5475 86.2969 94.8405 86.0039 95.2051 85.7891C95.5762 85.5677 95.9831 85.457 96.4258 85.457C96.862 85.457 97.2624 85.5677 97.627 85.7891C97.9915 86.0039 98.2812 86.2969 98.4961 86.668C98.7174 87.0326 98.8281 87.4329 98.8281 87.8691C98.8281 88.3118 98.7174 88.7188 98.4961 89.0898C98.2812 89.4544 97.9915 89.7441 97.627 89.959C97.2624 90.1738 96.862 90.2812 96.4258 90.2812ZM110.41 100.975C109.707 100.975 109.043 100.841 108.418 100.574C107.799 100.307 107.253 99.9362 106.777 99.4609C106.309 98.9857 105.938 98.4355 105.664 97.8105C105.397 97.1921 105.264 96.5312 105.264 95.8281C105.264 95.125 105.397 94.4642 105.664 93.8457C105.938 93.2272 106.309 92.6803 106.777 92.2051C107.253 91.7298 107.799 91.3587 108.418 91.0918C109.043 90.8249 109.707 90.6914 110.41 90.6914C111.113 90.6914 111.774 90.8249 112.393 91.0918C113.018 91.3587 113.564 91.7298 114.033 92.2051C114.508 92.6738 114.88 93.2207 115.146 93.8457C115.413 94.4642 115.547 95.125 115.547 95.8281C115.547 96.5312 115.413 97.1921 115.146 97.8105C114.88 98.4355 114.508 98.9824 114.033 99.4512C113.558 99.9264 113.008 100.298 112.383 100.564C111.764 100.838 111.107 100.975 110.41 100.975ZM110.41 99.1582C110.645 99.1582 110.833 99.0866 110.977 98.9434C111.12 98.8001 111.191 98.6113 111.191 98.377V96.6191H112.949C113.177 96.6191 113.363 96.5475 113.506 96.4043C113.656 96.2611 113.73 96.0723 113.73 95.8379C113.73 95.597 113.656 95.4082 113.506 95.2715C113.363 95.1283 113.177 95.0566 112.949 95.0566H111.191V93.3086C111.191 93.0677 111.12 92.8789 110.977 92.7422C110.833 92.599 110.645 92.5273 110.41 92.5273C110.176 92.5273 109.987 92.599 109.844 92.7422C109.701 92.8854 109.629 93.0742 109.629 93.3086V95.0566H107.871C107.637 95.0566 107.448 95.1283 107.305 95.2715C107.161 95.4082 107.09 95.597 107.09 95.8379C107.09 96.0723 107.161 96.2611 107.305 96.4043C107.454 96.5475 107.643 96.6191 107.871 96.6191H109.629V98.377C109.629 98.6113 109.701 98.8001 109.844 98.9434C109.987 99.0866 110.176 99.1582 110.41 99.1582Z" fill="#FE747C"/>
</svg>
